<svg xmlns="http://www.w3.org/2000/svg" xmlns:xlink="http://www.w3.org/1999/xlink" width="500" zoomAndPan="magnify" viewBox="0 0 375 374.999991" height="500" preserveAspectRatio="xMidYMid meet" version="1.0"><defs><g/><clipPath id="id1"><path d="M 340 229.972656 L 367.75 229.972656 L 367.75 254.722656 L 340 254.722656 Z M 340 229.972656 " clip-rule="nonzero"/></clipPath><clipPath id="id2"><path d="M 159.746094 230.171875 L 187.496094 230.171875 L 187.496094 254.921875 L 159.746094 254.921875 Z M 159.746094 230.171875 " clip-rule="nonzero"/></clipPath></defs><g fill="#545454" fill-opacity="1"><g transform="translate(1.638884, 220.29855)"><g><path d="M 12.207031 0 C 24.414062 0.128906 33.667969 0.515625 42.917969 0.515625 C 67.074219 0.515625 79.925781 -10.410156 79.925781 -26.46875 C 79.925781 -41.375 68.488281 -48.828125 52.554688 -50.242188 C 64.503906 -51.785156 72.34375 -58.851562 72.34375 -70.546875 C 72.34375 -81.597656 62.707031 -90.460938 42.789062 -90.460938 C 35.59375 -90.460938 24.285156 -90.078125 12.207031 -89.949219 C 10.410156 -89.949219 6.808594 -90.207031 5.140625 -90.207031 C 4.242188 -90.207031 4.113281 -89.433594 5.140625 -89.304688 C 10.921875 -89.175781 14.519531 -86.734375 14.519531 -77.871094 L 14.519531 -12.078125 C 14.519531 -3.210938 10.921875 -0.769531 5.140625 -0.640625 C 4.113281 -0.515625 4.242188 0.257812 5.269531 0.257812 C 6.808594 0.257812 10.410156 0 12.207031 0 Z M 32.636719 -50.113281 C 31.738281 -50.113281 31.738281 -49.34375 32.636719 -49.34375 L 40.21875 -49.214844 C 58.210938 -48.828125 65.535156 -39.449219 65.535156 -24.542969 C 65.535156 -9.25 56.410156 -0.515625 41.121094 -0.515625 L 31.867188 -0.515625 C 27.5 -0.515625 26.855469 -2.054688 26.855469 -7.066406 L 26.855469 -84.421875 C 26.855469 -88.40625 27.242188 -89.5625 30.710938 -89.433594 L 39.320312 -89.046875 C 50.371094 -88.535156 58.980469 -82.109375 58.980469 -69.261719 C 58.980469 -57.179688 54.996094 -51.398438 39.960938 -50.5 Z M 32.636719 -50.113281 "/></g></g></g><g fill="#545454" fill-opacity="1"><g transform="translate(68.450006, 220.29855)"><g><path d="M 91.105469 -0.515625 C 86.734375 -0.769531 84.808594 -3.339844 81.46875 -11.566406 L 49.085938 -88.664062 C 48.699219 -89.691406 48.1875 -89.949219 47.160156 -89.949219 L 35.207031 -89.949219 C 34.4375 -89.949219 34.179688 -89.5625 34.566406 -89.433594 C 35.335938 -89.175781 35.980469 -88.535156 36.234375 -87.765625 L 38.164062 -83.136719 C 38.679688 -81.980469 39.320312 -79.667969 38.292969 -77.226562 L 10.921875 -11.566406 C 7.453125 -3.339844 5.527344 -0.769531 1.15625 -0.515625 C 0.386719 -0.515625 0.515625 0.386719 1.15625 0.386719 C 2.441406 0.257812 5.140625 0 6.554688 0 L 12.078125 0 C 14.390625 0 19.019531 0.257812 20.945312 0.386719 C 22.101562 0.386719 22.359375 -0.515625 21.074219 -0.515625 C 13.75 -0.769531 8.351562 -3.339844 11.820312 -11.566406 L 14.777344 -18.632812 L 14.777344 -18.503906 C 15.292969 -20.046875 17.089844 -21.074219 18.890625 -21.074219 C 32.253906 -21.714844 45.617188 -25.058594 57.054688 -30.453125 C 58.59375 -31.226562 59.621094 -30.96875 60.652344 -29.8125 L 68.359375 -11.566406 C 71.703125 -3.339844 66.5625 -0.769531 59.496094 -0.515625 C 58.210938 -0.515625 58.335938 0.386719 59.496094 0.386719 C 61.421875 0.257812 65.917969 0 68.105469 0 L 85.707031 0 C 87.121094 0 89.820312 0.257812 91.105469 0.386719 C 91.746094 0.386719 91.875 -0.515625 91.105469 -0.515625 Z M 56.539062 -31.351562 C 45.746094 -25.828125 31.996094 -22.742188 19.019531 -21.972656 C 17.476562 -21.972656 16.960938 -23.257812 17.21875 -24.285156 L 39.960938 -78.898438 L 58.464844 -34.953125 L 58.335938 -34.953125 C 58.851562 -33.921875 58.210938 -32.125 56.539062 -31.351562 Z M 56.539062 -31.351562 "/></g></g></g><g fill="#545454" fill-opacity="1"><g transform="translate(143.227292, 220.29855)"><g><path d="M 91.488281 9.125 C 76.328125 -0.128906 63.347656 -21.714844 56.796875 -44.84375 C 56.539062 -45.488281 56.152344 -45.875 55.511719 -45.746094 C 53.453125 -45.488281 51.269531 -45.230469 49.085938 -45.230469 C 66.046875 -47.542969 75.941406 -56.667969 75.941406 -68.488281 C 75.941406 -83.394531 65.40625 -90.460938 41.246094 -90.460938 C 32.636719 -90.460938 23.902344 -90.078125 12.207031 -89.949219 C 10.410156 -89.949219 6.808594 -90.207031 5.140625 -90.207031 C 4.242188 -90.207031 4.113281 -89.433594 5.140625 -89.304688 C 10.921875 -89.175781 14.519531 -86.734375 14.519531 -77.871094 L 14.519531 -12.078125 C 14.519531 -3.210938 10.921875 -0.769531 5.269531 -0.515625 C 4.113281 -0.515625 4.367188 0.386719 5.269531 0.386719 C 6.808594 0.257812 10.410156 0 12.207031 0 L 29.167969 0 C 30.96875 0 34.566406 0.257812 36.109375 0.386719 C 37.007812 0.386719 37.136719 -0.515625 36.109375 -0.515625 C 30.453125 -0.769531 26.855469 -3.210938 26.855469 -12.078125 L 26.855469 -84.808594 C 26.855469 -88.277344 28.140625 -89.5625 31.226562 -89.433594 L 38.292969 -89.175781 C 54.738281 -88.664062 62.0625 -83.136719 62.0625 -69.132812 C 62.0625 -56.28125 54.996094 -46.644531 39.0625 -45.617188 L 33.410156 -45.488281 C 32.511719 -45.359375 32.511719 -44.71875 33.410156 -44.71875 L 42.53125 -44.589844 C 54.484375 -15.804688 69.773438 1.027344 90.976562 9.894531 C 91.875 10.28125 92.390625 9.636719 91.488281 9.125 Z M 91.488281 9.125 "/></g></g></g><g fill="#545454" fill-opacity="1"><g transform="translate(210.809342, 220.29855)"><g><path d="M 91.105469 -0.515625 C 86.734375 -0.769531 84.808594 -3.339844 81.46875 -11.566406 L 49.085938 -88.664062 C 48.699219 -89.691406 48.1875 -89.949219 47.160156 -89.949219 L 35.207031 -89.949219 C 34.4375 -89.949219 34.179688 -89.5625 34.566406 -89.433594 C 35.335938 -89.175781 35.980469 -88.535156 36.234375 -87.765625 L 38.164062 -83.136719 C 38.679688 -81.980469 39.320312 -79.667969 38.292969 -77.226562 L 10.921875 -11.566406 C 7.453125 -3.339844 5.527344 -0.769531 1.15625 -0.515625 C 0.386719 -0.515625 0.515625 0.386719 1.15625 0.386719 C 2.441406 0.257812 5.140625 0 6.554688 0 L 12.078125 0 C 14.390625 0 19.019531 0.257812 20.945312 0.386719 C 22.101562 0.386719 22.359375 -0.515625 21.074219 -0.515625 C 13.75 -0.769531 8.351562 -3.339844 11.820312 -11.566406 L 14.777344 -18.632812 L 14.777344 -18.503906 C 15.292969 -20.046875 17.089844 -21.074219 18.890625 -21.074219 C 32.253906 -21.714844 45.617188 -25.058594 57.054688 -30.453125 C 58.59375 -31.226562 59.621094 -30.96875 60.652344 -29.8125 L 68.359375 -11.566406 C 71.703125 -3.339844 66.5625 -0.769531 59.496094 -0.515625 C 58.210938 -0.515625 58.335938 0.386719 59.496094 0.386719 C 61.421875 0.257812 65.917969 0 68.105469 0 L 85.707031 0 C 87.121094 0 89.820312 0.257812 91.105469 0.386719 C 91.746094 0.386719 91.875 -0.515625 91.105469 -0.515625 Z M 56.539062 -31.351562 C 45.746094 -25.828125 31.996094 -22.742188 19.019531 -21.972656 C 17.476562 -21.972656 16.960938 -23.257812 17.21875 -24.285156 L 39.960938 -78.898438 L 58.464844 -34.953125 L 58.335938 -34.953125 C 58.851562 -33.921875 58.210938 -32.125 56.539062 -31.351562 Z M 56.539062 -31.351562 "/></g></g></g><g fill="#545454" fill-opacity="1"><g transform="translate(285.586641, 220.29855)"><g><path d="M 91.105469 -0.515625 C 86.734375 -0.769531 84.808594 -3.339844 81.46875 -11.566406 L 49.085938 -88.664062 C 48.699219 -89.691406 48.1875 -89.949219 47.160156 -89.949219 L 35.207031 -89.949219 C 34.4375 -89.949219 34.179688 -89.5625 34.566406 -89.433594 C 35.335938 -89.175781 35.980469 -88.535156 36.234375 -87.765625 L 38.164062 -83.136719 C 38.679688 -81.980469 39.320312 -79.667969 38.292969 -77.226562 L 10.921875 -11.566406 C 7.453125 -3.339844 5.527344 -0.769531 1.15625 -0.515625 C 0.386719 -0.515625 0.515625 0.386719 1.15625 0.386719 C 2.441406 0.257812 5.140625 0 6.554688 0 L 12.078125 0 C 14.390625 0 19.019531 0.257812 20.945312 0.386719 C 22.101562 0.386719 22.359375 -0.515625 21.074219 -0.515625 C 13.75 -0.769531 8.351562 -3.339844 11.820312 -11.566406 L 14.777344 -18.632812 L 14.777344 -18.503906 C 15.292969 -20.046875 17.089844 -21.074219 18.890625 -21.074219 C 32.253906 -21.714844 45.617188 -25.058594 57.054688 -30.453125 C 58.59375 -31.226562 59.621094 -30.96875 60.652344 -29.8125 L 68.359375 -11.566406 C 71.703125 -3.339844 66.5625 -0.769531 59.496094 -0.515625 C 58.210938 -0.515625 58.335938 0.386719 59.496094 0.386719 C 61.421875 0.257812 65.917969 0 68.105469 0 L 85.707031 0 C 87.121094 0 89.820312 0.257812 91.105469 0.386719 C 91.746094 0.386719 91.875 -0.515625 91.105469 -0.515625 Z M 56.539062 -31.351562 C 45.746094 -25.828125 31.996094 -22.742188 19.019531 -21.972656 C 17.476562 -21.972656 16.960938 -23.257812 17.21875 -24.285156 L 39.960938 -78.898438 L 58.464844 -34.953125 L 58.335938 -34.953125 C 58.851562 -33.921875 58.210938 -32.125 56.539062 -31.351562 Z M 56.539062 -31.351562 "/></g></g></g><g clip-path="url(#id1)"><path fill="#000000" d="M 354.003906 229.972656 L 340 229.972656 L 353.742188 242.351562 L 340 254.722656 L 354.003906 254.722656 L 367.75 242.351562 L 354.003906 229.972656 " fill-opacity="1" fill-rule="nonzero"/></g><g fill="#d40000" fill-opacity="1"><g transform="translate(206.970327, 251.825184)"><g><path d="M 4.535156 0.320312 C 5.9375 0.320312 7.140625 -0.882812 7.140625 -2.289062 C 7.140625 -3.691406 5.9375 -4.894531 4.535156 -4.894531 C 3.128906 -4.894531 1.925781 -3.691406 1.925781 -2.289062 C 1.925781 -0.882812 3.128906 0.320312 4.535156 0.320312 Z M 4.535156 0.320312 "/></g></g></g><g fill="#d40000" fill-opacity="1"><g transform="translate(234.626335, 251.825184)"><g><path d="M 2.648438 0 L 9.871094 0 C 16.53125 0 21.910156 -5.375 21.910156 -12.039062 C 21.910156 -18.699219 16.53125 -24.074219 9.871094 -24.074219 L 2.648438 -24.074219 Z M 6.539062 -3.652344 L 6.539062 -20.421875 L 9.871094 -20.421875 C 14.445312 -20.421875 18.015625 -16.851562 18.015625 -12.039062 C 18.015625 -7.222656 14.445312 -3.652344 9.871094 -3.652344 Z M 6.539062 -3.652344 "/></g></g></g><g fill="#d40000" fill-opacity="1"><g transform="translate(276.846665, 251.825184)"><g><path d="M 16.652344 -20.503906 L 16.652344 -24.074219 L 2.847656 -24.074219 L 2.847656 0 L 16.652344 0 L 16.652344 -3.570312 L 6.78125 -3.570312 L 6.78125 -10.230469 L 15.328125 -10.230469 L 15.328125 -13.84375 L 6.78125 -13.84375 L 6.78125 -20.503906 Z M 16.652344 -20.503906 "/></g></g></g><g fill="#d40000" fill-opacity="1"><g transform="translate(314.131983, 251.825184)"><g><path d="M 17.132812 -24.074219 L 10.632812 -4.976562 L 4.09375 -24.074219 L -0.28125 -24.074219 L 8.425781 0 L 12.800781 0 L 21.507812 -24.074219 Z M 17.132812 -24.074219 "/></g></g></g><g clip-path="url(#id2)"><path fill="#000000" d="M 173.488281 254.921875 L 187.496094 254.921875 L 173.75 242.542969 L 187.496094 230.171875 L 173.488281 230.171875 L 159.746094 242.542969 L 173.488281 254.921875 " fill-opacity="1" fill-rule="nonzero"/></g><path stroke-linecap="butt" transform="matrix(1.790761, -3.301644, 3.296353, 1.787892, 191.39775, 254.032337)" fill="none" stroke-linejoin="miter" d="M 0.000341599 0.0000228876 L 7.787667 0.0000444118 " stroke="#000000" stroke-width="1" stroke-opacity="1" stroke-miterlimit="4"/></svg>